<?xml version="1.0" encoding="UTF-8" standalone="no"?>
<!DOCTYPE svg PUBLIC "-//W3C//DTD SVG 1.1//EN"
 "http://www.w3.org/Graphics/SVG/1.1/DTD/svg11.dtd">
<!-- Generated by graphviz version 2.44.0 (20200408.0750)
 -->
<!-- Title: dependency&#45;cruiser output Pages: 1 -->
<svg width="276pt" height="138pt"
 viewBox="0.00 0.00 276.01 138.00" xmlns="http://www.w3.org/2000/svg" xmlns:xlink="http://www.w3.org/1999/xlink">
<g id="graph0" class="graph" transform="scale(1 1) rotate(0) translate(4 134)">
<title>dependency&#45;cruiser output</title>
<polygon fill="white" stroke="transparent" points="-4,4 -4,-134 272.01,-134 272.01,4 -4,4"/>
<g id="clust1" class="cluster">
<title>cluster_src</title>
<path fill="#ffffff" stroke="black" stroke-width="2" d="M20,-8C20,-8 248.01,-8 248.01,-8 254.01,-8 260.01,-14 260.01,-20 260.01,-20 260.01,-110 260.01,-110 260.01,-116 254.01,-122 248.01,-122 248.01,-122 20,-122 20,-122 14,-122 8,-116 8,-110 8,-110 8,-20 8,-20 8,-14 14,-8 20,-8"/>
<text text-anchor="middle" x="134" y="-109.9" font-family="Helvetica,sans-Serif" font-weight="bold" font-size="9.00">src</text>
</g>
<g id="clust2" class="cluster">
<title>cluster_src/handlers</title>
<path fill="#ffffff" stroke="black" stroke-width="2" d="M188.5,-42C188.5,-42 240.01,-42 240.01,-42 246.01,-42 252.01,-48 252.01,-54 252.01,-54 252.01,-83 252.01,-83 252.01,-89 246.01,-95 240.01,-95 240.01,-95 188.5,-95 188.5,-95 182.5,-95 176.5,-89 176.5,-83 176.5,-83 176.5,-54 176.5,-54 176.5,-48 182.5,-42 188.5,-42"/>
<text text-anchor="middle" x="214.25" y="-82.9" font-family="Helvetica,sans-Serif" font-weight="bold" font-size="9.00">handlers</text>
</g>
<g id="clust3" class="cluster">
<title>cluster_src/init</title>
<path fill="#ffffff" stroke="black" stroke-width="2" d="M28,-42C28,-42 74,-42 74,-42 80,-42 86,-48 86,-54 86,-54 86,-83 86,-83 86,-89 80,-95 74,-95 74,-95 28,-95 28,-95 22,-95 16,-89 16,-83 16,-83 16,-54 16,-54 16,-48 22,-42 28,-42"/>
<text text-anchor="middle" x="51" y="-82.9" font-family="Helvetica,sans-Serif" font-weight="bold" font-size="9.00">init</text>
</g>
<g id="clust4" class="cluster">
<title>cluster_src/listeners</title>
<path fill="#ffffff" stroke="black" stroke-width="2" d="M106,-42C106,-42 156.5,-42 156.5,-42 162.5,-42 168.5,-48 168.5,-54 168.5,-54 168.5,-83 168.5,-83 168.5,-89 162.5,-95 156.5,-95 156.5,-95 106,-95 106,-95 100,-95 94,-89 94,-83 94,-83 94,-54 94,-54 94,-48 100,-42 106,-42"/>
<text text-anchor="middle" x="131.25" y="-82.9" font-family="Helvetica,sans-Serif" font-weight="bold" font-size="9.00">listeners</text>
</g>
<!-- src/data.js -->
<g id="node1" class="node">
<title>src/data.js</title>
<g id="a_node1"><a xlink:href="../src/data.js" xlink:title="data.js">
<path fill="#ccffcc" stroke="black" d="M71.8,-34.3C71.8,-34.3 30.2,-34.3 30.2,-34.3 27.1,-34.3 24,-31.2 24,-28.1 24,-28.1 24,-21.9 24,-21.9 24,-18.8 27.1,-15.7 30.2,-15.7 30.2,-15.7 71.8,-15.7 71.8,-15.7 74.9,-15.7 78,-18.8 78,-21.9 78,-21.9 78,-28.1 78,-28.1 78,-31.2 74.9,-34.3 71.8,-34.3"/>
<text text-anchor="middle" x="51" y="-22.3" font-family="Helvetica,sans-Serif" font-size="9.00">data.js</text>
</a>
</g>
</g>
<!-- src/handlers/handlers.js -->
<g id="node2" class="node">
<title>src/handlers/handlers.js</title>
<g id="a_node2"><a xlink:href="../src/handlers/handlers.js" xlink:title="handlers.js">
<path fill="#ffffcc" stroke="black" d="M237.56,-68.3C237.56,-68.3 190.94,-68.3 190.94,-68.3 187.84,-68.3 184.74,-65.2 184.74,-62.1 184.74,-62.1 184.74,-55.9 184.74,-55.9 184.74,-52.8 187.84,-49.7 190.94,-49.7 190.94,-49.7 237.56,-49.7 237.56,-49.7 240.66,-49.7 243.76,-52.8 243.76,-55.9 243.76,-55.9 243.76,-62.1 243.76,-62.1 243.76,-65.2 240.66,-68.3 237.56,-68.3"/>
<text text-anchor="middle" x="214.25" y="-56.3" font-family="Helvetica,sans-Serif" font-size="9.00">handlers.js</text>
</a>
</g>
</g>
<!-- src/init/index.js -->
<g id="node3" class="node">
<title>src/init/index.js</title>
<g id="a_node3"><a xlink:href="../src/init/index.js" xlink:title="index.js">
<path fill="#ffffcc" stroke="black" d="M71.8,-68.3C71.8,-68.3 30.2,-68.3 30.2,-68.3 27.1,-68.3 24,-65.2 24,-62.1 24,-62.1 24,-55.9 24,-55.9 24,-52.8 27.1,-49.7 30.2,-49.7 30.2,-49.7 71.8,-49.7 71.8,-49.7 74.9,-49.7 78,-52.8 78,-55.9 78,-55.9 78,-62.1 78,-62.1 78,-65.2 74.9,-68.3 71.8,-68.3"/>
<text text-anchor="middle" x="51" y="-56.3" font-family="Helvetica,sans-Serif" font-size="9.00">index.js</text>
</a>
</g>
</g>
<!-- src/listeners/listeners.js -->
<g id="node4" class="node">
<title>src/listeners/listeners.js</title>
<g id="a_node4"><a xlink:href="../src/listeners/listeners.js" xlink:title="listeners.js">
<path fill="#ffffcc" stroke="black" d="M154.55,-68.3C154.55,-68.3 107.95,-68.3 107.95,-68.3 104.85,-68.3 101.75,-65.2 101.75,-62.1 101.75,-62.1 101.75,-55.9 101.75,-55.9 101.75,-52.8 104.85,-49.7 107.95,-49.7 107.95,-49.7 154.55,-49.7 154.55,-49.7 157.65,-49.7 160.75,-52.8 160.75,-55.9 160.75,-55.9 160.75,-62.1 160.75,-62.1 160.75,-65.2 157.65,-68.3 154.55,-68.3"/>
<text text-anchor="middle" x="131.25" y="-56.3" font-family="Helvetica,sans-Serif" font-size="9.00">listeners.js</text>
</a>
</g>
</g>
<!-- src/init/index.js&#45;&gt;src/listeners/listeners.js -->
<g id="edge1" class="edge">
<title>src/init/index.js&#45;&gt;src/listeners/listeners.js</title>
<path fill="none" stroke="#000000" stroke-width="2" stroke-opacity="0.200000" d="M78.06,-59C83.67,-59 89.69,-59 95.58,-59"/>
<polygon fill="#000000" fill-opacity="0.200000" stroke="#000000" stroke-width="2" stroke-opacity="0.200000" points="95.89,-61.1 101.89,-59 95.89,-56.9 95.89,-61.1"/>
</g>
<!-- src/listeners/listeners.js&#45;&gt;src/handlers/handlers.js -->
<g id="edge2" class="edge">
<title>src/listeners/listeners.js&#45;&gt;src/handlers/handlers.js</title>
<path fill="none" stroke="#000000" stroke-width="2" stroke-opacity="0.200000" d="M160.58,-59C166.28,-59 172.33,-59 178.22,-59"/>
<polygon fill="#000000" fill-opacity="0.200000" stroke="#000000" stroke-width="2" stroke-opacity="0.200000" points="178.53,-61.1 184.53,-59 178.53,-56.9 178.53,-61.1"/>
</g>
</g>
</svg>
